<svg xmlns="http://www.w3.org/2000/svg" viewBox="0 0 36 24">
  <defs>
    <clipPath id="us-clip">
      <rect width="36" height="24" rx="3"/>
    </clipPath>
  </defs>
  <g clip-path="url(#us-clip)">
    <!-- Red background (stripes 1,3,5,7,9,11,13) -->
    <rect width="36" height="24" fill="#B22234"/>
    <!-- White stripes (2,4,6,8,10,12) — each stripe 24/13 ≈ 1.846 tall -->
    <rect y="1.85"  width="36" height="1.85" fill="#fff"/>
    <rect y="5.54"  width="36" height="1.85" fill="#fff"/>
    <rect y="9.23"  width="36" height="1.85" fill="#fff"/>
    <rect y="12.92" width="36" height="1.85" fill="#fff"/>
    <rect y="16.62" width="36" height="1.85" fill="#fff"/>
    <rect y="20.31" width="36" height="1.85" fill="#fff"/>
    <!-- Blue canton -->
    <rect width="14.4" height="12.92" fill="#3C3B6E"/>
    <!-- Stars — simplified circles, 6-row alternating pattern -->
    <circle cx="1.6"  cy="1.4"  r="0.72" fill="#fff"/>
    <circle cx="3.9"  cy="1.4"  r="0.72" fill="#fff"/>
    <circle cx="6.2"  cy="1.4"  r="0.72" fill="#fff"/>
    <circle cx="8.5"  cy="1.4"  r="0.72" fill="#fff"/>
    <circle cx="10.8" cy="1.4"  r="0.72" fill="#fff"/>
    <circle cx="13.1" cy="1.4"  r="0.72" fill="#fff"/>
    <circle cx="2.75" cy="3.25" r="0.72" fill="#fff"/>
    <circle cx="5.05" cy="3.25" r="0.72" fill="#fff"/>
    <circle cx="7.35" cy="3.25" r="0.72" fill="#fff"/>
    <circle cx="9.65" cy="3.25" r="0.72" fill="#fff"/>
    <circle cx="11.95" cy="3.25" r="0.72" fill="#fff"/>
    <circle cx="1.6"  cy="5.1"  r="0.72" fill="#fff"/>
    <circle cx="3.9"  cy="5.1"  r="0.72" fill="#fff"/>
    <circle cx="6.2"  cy="5.1"  r="0.72" fill="#fff"/>
    <circle cx="8.5"  cy="5.1"  r="0.72" fill="#fff"/>
    <circle cx="10.8" cy="5.1"  r="0.72" fill="#fff"/>
    <circle cx="13.1" cy="5.1"  r="0.72" fill="#fff"/>
    <circle cx="2.75" cy="6.95" r="0.72" fill="#fff"/>
    <circle cx="5.05" cy="6.95" r="0.72" fill="#fff"/>
    <circle cx="7.35" cy="6.95" r="0.72" fill="#fff"/>
    <circle cx="9.65" cy="6.95" r="0.72" fill="#fff"/>
    <circle cx="11.95" cy="6.95" r="0.72" fill="#fff"/>
    <circle cx="1.6"  cy="8.8"  r="0.72" fill="#fff"/>
    <circle cx="3.9"  cy="8.8"  r="0.72" fill="#fff"/>
    <circle cx="6.2"  cy="8.8"  r="0.72" fill="#fff"/>
    <circle cx="8.5"  cy="8.8"  r="0.72" fill="#fff"/>
    <circle cx="10.8" cy="8.8"  r="0.72" fill="#fff"/>
    <circle cx="13.1" cy="8.8"  r="0.72" fill="#fff"/>
    <circle cx="2.75" cy="10.65" r="0.72" fill="#fff"/>
    <circle cx="5.05" cy="10.65" r="0.72" fill="#fff"/>
    <circle cx="7.35" cy="10.65" r="0.72" fill="#fff"/>
    <circle cx="9.65" cy="10.65" r="0.72" fill="#fff"/>
    <circle cx="11.95" cy="10.65" r="0.72" fill="#fff"/>
  </g>
</svg>
